HIERARCHY
ROOT hip
{
  OFFSET 5.70873 43.8894 -1.52928
  CHANNELS 6 Xposition Yposition Zposition Zrotation Xrotation Yrotation
  JOINT abdomen
  {
    OFFSET 0 5.99393 0.287273
    CHANNELS 6 Xposition Yposition Zposition Zrotation Xrotation Yrotation
    JOINT chest
    {
      OFFSET 0 6.65865 -0.856112
      CHANNELS 6 Xposition Yposition Zposition Zrotation Xrotation Yrotation
      JOINT neck
      {
        OFFSET 0 8.65624 -1.42685
        CHANNELS 6 Xposition Yposition Zposition Zrotation Xrotation Yrotation
        JOINT head
        {
          OFFSET 0 3.80999 -0.190247
          CHANNELS 6 Xposition Yposition Zposition Zrotation Xrotation Yrotation
          End Site
          {
            OFFSET 0 0 0
          }
        }
      }
      JOINT rCollar
      {
        OFFSET -1.4963 7.5744 -1.52136
        CHANNELS 6 Xposition Yposition Zposition Zrotation Xrotation Yrotation
        JOINT rShldr
        {
          OFFSET -5.47506 -0.905672 0.485692
          CHANNELS 6 Xposition Yposition Zposition Zrotation Xrotation Yrotation
          JOINT rForeArm
          {
            OFFSET -11.3069 -0.201091 0.618544
            CHANNELS 6 Xposition Yposition Zposition Zrotation Xrotation Yrotation
            JOINT rHand
            {
              OFFSET -9.61414 -0.254739 3.48553
              CHANNELS 6 Xposition Yposition Zposition Zrotation Xrotation Yrotation
              JOINT rThumb1
              {
                OFFSET 0.176263 -0.07068 1.26622
                CHANNELS 6 Xposition Yposition Zposition Zrotation Xrotation Yrotation
                JOINT rThumb2
                {
                  OFFSET -1.04683 -0.546484 1.82182
                  CHANNELS 6 Xposition Yposition Zposition Zrotation Xrotation Yrotation
                  JOINT rThumb3
                  {
                    OFFSET -0.993472 -0.621916 0.655506
                    CHANNELS 6 Xposition Yposition Zposition Zrotation Xrotation Yrotation
                    End Site
                    {
                      OFFSET -0.996134 -0.66263 0.644615
                    }
                  }
                }
              }
              JOINT rIndex1
              {
                OFFSET -2.64253 0.566363 2.4162
                CHANNELS 6 Xposition Yposition Zposition Zrotation Xrotation Yrotation
                JOINT rIndex2
                {
                  OFFSET -1.39394 -0.635138 0.899356
                  CHANNELS 6 Xposition Yposition Zposition Zrotation Xrotation Yrotation
                  JOINT rIndex3
                  {
                    OFFSET -0.622395 -0.856016 0.402182
                    CHANNELS 6 Xposition Yposition Zposition Zrotation Xrotation Yrotation
                    End Site
                    {
                      OFFSET -0.472476 -0.801802 0.34216
                    }
                  }
                }
              }
              JOINT rMid1
              {
                OFFSET -3.20814 0.514427 1.52547
                CHANNELS 6 Xposition Yposition Zposition Zrotation Xrotation Yrotation
                JOINT rMid2
                {
                  OFFSET -1.56545 -0.497974 0.68919
                  CHANNELS 6 Xposition Yposition Zposition Zrotation Xrotation Yrotation
                  JOINT rMid3
                  {
                    OFFSET -0.679943 -1.17582 0.444246
                    CHANNELS 6 Xposition Yposition Zposition Zrotation Xrotation Yrotation
                    End Site
                    {
                      OFFSET -0.343874 -0.941341 0.267611
                    }
                  }
                }
              }
              JOINT rRing1
              {
                OFFSET -3.47877 0.200518 0.597719
                CHANNELS 6 Xposition Yposition Zposition Zrotation Xrotation Yrotation
                JOINT rRing2
                {
                  OFFSET -1.28208 -0.53155 0.44672
                  CHANNELS 6 Xposition Yposition Zposition Zrotation Xrotation Yrotation
                  JOINT rRing3
                  {
                    OFFSET -0.710288 -0.970167 0.4032
                    CHANNELS 6 Xposition Yposition Zposition Zrotation Xrotation Yrotation
                    End Site
                    {
                      OFFSET -0.403228 -0.950952 0.378354
                    }
                  }
                }
              }
              JOINT rPinky1
              {
                OFFSET -3.42483 -0.278904 -0.240415
                CHANNELS 6 Xposition Yposition Zposition Zrotation Xrotation Yrotation
                JOINT rPinky2
                {
                  OFFSET -1.05787 -0.635999 0.156459
                  CHANNELS 6 Xposition Yposition Zposition Zrotation Xrotation Yrotation
                  JOINT rPinky3
                  {
                    OFFSET -0.42815 -0.754232 0.287187
                    CHANNELS 6 Xposition Yposition Zposition Zrotation Xrotation Yrotation
                    End Site
                    {
                      OFFSET -0.235717 -0.725605 0.279416
                    }
                  }
                }
              }
            }
          }
        }
      }
      JOINT lCollar
      {
        OFFSET 1.4963 7.5744 -1.52136
        CHANNELS 6 Xposition Yposition Zposition Zrotation Xrotation Yrotation
        JOINT lShldr
        {
          OFFSET 5.47506 -0.905672 0.485692
          CHANNELS 6 Xposition Yposition Zposition Zrotation Xrotation Yrotation
          JOINT lForeArm
          {
            OFFSET 11.3069 -0.201091 0.618544
            CHANNELS 6 Xposition Yposition Zposition Zrotation Xrotation Yrotation
            JOINT lHand
            {
              OFFSET 9.61414 -0.254739 3.48553
              CHANNELS 6 Xposition Yposition Zposition Zrotation Xrotation Yrotation
              JOINT lThumb1
              {
                OFFSET -0.176263 -0.07068 1.26622
                CHANNELS 6 Xposition Yposition Zposition Zrotation Xrotation Yrotation
                JOINT lThumb2
                {
                  OFFSET 1.04683 -0.546484 1.82182
                  CHANNELS 6 Xposition Yposition Zposition Zrotation Xrotation Yrotation
                  JOINT lThumb3
                  {
                    OFFSET 0.993472 -0.621916 0.655506
                    CHANNELS 6 Xposition Yposition Zposition Zrotation Xrotation Yrotation
                    End Site
                    {
                      OFFSET 0.996134 -0.66263 0.644615
                    }
                  }
                }
              }
              JOINT lIndex1
              {
                OFFSET 2.64253 0.566363 2.4162
                CHANNELS 6 Xposition Yposition Zposition Zrotation Xrotation Yrotation
                JOINT lIndex2
                {
                  OFFSET 1.39394 -0.635138 0.899356
                  CHANNELS 6 Xposition Yposition Zposition Zrotation Xrotation Yrotation
                  JOINT lIndex3
                  {
                    OFFSET 0.622395 -0.856016 0.402182
                    CHANNELS 6 Xposition Yposition Zposition Zrotation Xrotation Yrotation
                    End Site
                    {
                      OFFSET 0.472476 -0.801802 0.34216
                    }
                  }
                }
              }
              JOINT lMid1
              {
                OFFSET 3.20814 0.514427 1.52547
                CHANNELS 6 Xposition Yposition Zposition Zrotation Xrotation Yrotation
                JOINT lMid2
                {
                  OFFSET 1.56545 -0.497974 0.68919
                  CHANNELS 6 Xposition Yposition Zposition Zrotation Xrotation Yrotation
                  JOINT lMid3
                  {
                    OFFSET 0.679943 -1.17582 0.444246
                    CHANNELS 6 Xposition Yposition Zposition Zrotation Xrotation Yrotation
                    End Site
                    {
                      OFFSET 0.343874 -0.941341 0.267611
                    }
                  }
                }
              }
              JOINT lRing1
              {
                OFFSET 3.47877 0.200518 0.597719
                CHANNELS 6 Xposition Yposition Zposition Zrotation Xrotation Yrotation
                JOINT lRing2
                {
                  OFFSET 1.28208 -0.53155 0.44672
                  CHANNELS 6 Xposition Yposition Zposition Zrotation Xrotation Yrotation
                  JOINT lRing3
                  {
                    OFFSET 0.710288 -0.970167 0.4032
                    CHANNELS 6 Xposition Yposition Zposition Zrotation Xrotation Yrotation
                    End Site
                    {
                      OFFSET 0.403228 -0.950952 0.378354
                    }
                  }
                }
              }
              JOINT lPinky1
              {
                OFFSET 3.42483 -0.278904 -0.240415
                CHANNELS 6 Xposition Yposition Zposition Zrotation Xrotation Yrotation
                JOINT lPinky2
                {
                  OFFSET 1.05787 -0.635999 0.156459
                  CHANNELS 6 Xposition Yposition Zposition Zrotation Xrotation Yrotation
                  JOINT lPinky3
                  {
                    OFFSET 0.42815 -0.754232 0.287187
                    CHANNELS 6 Xposition Yposition Zposition Zrotation Xrotation Yrotation
                    End Site
                    {
                      OFFSET 0.235717 -0.725605 0.279416
                    }
                  }
                }
              }
            }
          }
        }
      }
    }
  }
  JOINT rThigh
  {
    OFFSET -4.17848 -1.02486 0.046356
    CHANNELS 6 Xposition Yposition Zposition Zrotation Xrotation Yrotation
    JOINT rShin
    {
      OFFSET 1.27155 -17.465 -0.237699
      CHANNELS 6 Xposition Yposition Zposition Zrotation Xrotation Yrotation
      JOINT rFoot
      {
        OFFSET 0.529163 -17.3815 -1.19582
        CHANNELS 6 Xposition Yposition Zposition Zrotation Xrotation Yrotation
        JOINT rToe
        {
          OFFSET -0.711591 -4.4863 4.0596
          CHANNELS 6 Xposition Yposition Zposition Zrotation Xrotation Yrotation
          End Site
          {
            OFFSET -0.869915 -1.10655 1.99006
          }
        }
      }
    }
  }
  JOINT lThigh
  {
    OFFSET 4.17848 -1.02486 0.046356
    CHANNELS 6 Xposition Yposition Zposition Zrotation Xrotation Yrotation
    JOINT lShin
    {
      OFFSET -1.27155 -17.465 -0.237699
      CHANNELS 6 Xposition Yposition Zposition Zrotation Xrotation Yrotation
      JOINT lFoot
      {
        OFFSET -0.529163 -17.3815 -1.19582
        CHANNELS 6 Xposition Yposition Zposition Zrotation Xrotation Yrotation
        JOINT lToe
        {
          OFFSET 0.711591 -4.4863 4.0596
          CHANNELS 6 Xposition Yposition Zposition Zrotation Xrotation Yrotation
          End Site
          {
            OFFSET 0.869915 -1.10655 1.99006
          }
        }
      }
    }
  }
}
MOTION
Frames:	4
Frame Time:	0.0333333
0.060783 43.7907 -0.0102954 1.38512 -10.3203 -1.19057 0 5.99393 0.287273 0.285566 5.26135 0.52141 0 6.65865 -0.856112 0.526167 10.525 1.02286 -4.44089e-016 8.65624 -1.42685 -0.351261 -1.45539 0.814224 0 3.80999 -0.190247 -0.0422944 -1.4735 -0.84135 -1.4963 7.5744 -1.52136 -3.3775 -0.0212546 0.886745 -5.47506 -0.905672 0.485692 82.3925 -7.294 -4.69418 -11.3069 -0.201091 0.618544 3.15255 -13.3512 17.5638 -9.61414 -0.254739 3.48553 -6.01312 36.2245 3.24171 0.176263 -0.07068 1.26622 0.00347017 -0.000855016 0.00482734 -1.04683 -0.546484 1.82182 -7.77671e-006 3.41222e-005 0.000115461 -0.993472 -0.621916 0.655506 -3.74171e-005 -1.42123e-005 4.91748e-005 -2.64253 0.566363 2.4162 9.29188e-005 -8.77799e-007 7.31774e-005 -1.39394 -0.635138 0.899356 7.30176e-005 2.35919e-005 4.19325e-005 -0.622395 -0.856016 0.402182 -8.86395e-005 2.38792e-005 2.51241e-006 -3.20814 0.514427 1.52547 -1.4612e-006 -1.21858e-005 6.9011e-005 -1.56545 -0.497974 0.68919 3.38448e-005 7.14936e-005 -6.20309e-006 -0.679943 -1.17582 0.444246 8.0795e-005 -8.84519e-006 -7.26804e-005 -3.47877 0.200518 0.597719 -3.0721e-005 -2.3779e-005 9.24053e-005 -1.28208 -0.53155 0.44672 -2.15864e-005 3.69899e-005 -9.7187e-005 -0.710288 -0.970167 0.4032 4.16009e-005 2.33086e-005 5.7634e-005 -3.42483 -0.278904 -0.240415 -1.65329e-005 6.5537e-005 3.17225e-005 -1.05787 -0.635999 0.156459 0.000144238 -5.29349e-005 9.62892e-006 -0.42815 -0.754232 0.287187 -2.1784e-006 3.03331e-005 -7.64496e-006 1.4963 7.5744 -1.52136 -1.27259 -0.180883 -1.72145 5.47506 -0.905672 0.485692 -83.3265 3.14687 -3.15012 11.3069 -0.201091 0.618544 -5.8213 -18.2413 -17.7021 9.61414 -0.254739 3.48553 1.42536 7.46628 4.13124 -0.176263 -0.07068 1.26622 4.17916e-005 8.94806e-005 2.33772e-005 1.04683 -0.546484 1.82182 -9.76564e-005 -1.03344e-006 -3.47203e-006 0.993472 -0.621916 0.655506 -9.89595e-005 2.70138e-005 1.7376e-005 2.64253 0.566363 2.4162 -4.87883e-005 -6.26495e-005 6.32296e-005 1.39394 -0.635138 0.899356 5.14834e-005 0.000136713 2.70234e-005 0.622395 -0.856016 0.402182 2.0397e-005 5.31478e-006 -6.14444e-005 3.20814 0.514427 1.52547 -1.50148e-005 6.55331e-005 1.94325e-005 1.56545 -0.497974 0.68919 -9.12315e-007 -4.42056e-005 8.97911e-005 0.679943 -1.17582 0.444246 -2.95694e-005 3.87148e-006 -1.95581e-006 3.47877 0.200518 0.597719 -3.35822e-005 2.3517e-005 5.56962e-005 1.28208 -0.53155 0.44672 5.36151e-005 -7.63818e-006 7.45571e-005 0.710288 -0.970167 0.4032 -1.97048e-005 9.07569e-006 0.000104109 3.42483 -0.278904 -0.240415 5.59296e-005 2.47705e-005 -5.82736e-007 1.05787 -0.635999 0.156459 -0.000141779 8.63069e-005 -4.61663e-005 0.42815 -0.754232 0.287187 2.21883e-005 6.16314e-006 5.64258e-005 -4.17848 -1.02486 0.046356 -0.058788 -0.977495 15.0622 1.27155 -17.465 -0.237699 9.23769 44.8289 -7.61472 0.529163 -17.3815 -1.19582 5.69784 -1.31594 -10.7372 -0.711591 -4.4863 4.0596 0.898105 6.46736 -0.22439 4.17848 -1.02486 0.046356 -5.4699 0.900964 4.22051 -1.27155 -17.465 -0.237699 -0.026639 8.81592 -0.846425 -0.529163 -17.3815 -1.19582 7.376 0.102059 0.444904 0.711591 -4.4863 4.0596 0.000172296 -0.00144632 0.000142575 
0.0798018 44.0083 -0.0539782 0.833542 -10.349 0.264433 -1.11022e-016 5.99393 0.287273 0.403384 5.35932 -0.131264 0 6.65865 -0.856112 0.824615 10.7176 -0.302617 -4.44089e-016 8.65624 -1.42685 0.12561 -1.63177 1.19255 0 3.80999 -0.190247 0.0381373 -1.58124 -0.689311 -1.4963 7.5744 -1.52136 -3.19689 -0.0165863 0.704031 -5.47506 -0.905672 0.485692 81.5984 -8.21555 -6.55713 -11.3069 -0.201091 0.618544 2.84338 -13.0637 17.2234 -9.61414 -0.254739 3.48553 -5.45083 34.9254 2.92388 0.176263 -0.07068 1.26622 -0.0143433 0.0152683 -0.043182 -1.04683 -0.546484 1.82182 -0.0144984 0.0152499 -0.0430814 -0.993472 -0.621916 0.655506 -0.0145374 0.0152259 -0.043172 -2.64253 0.566363 2.4162 0.0559719 0.0126907 -0.00555638 -1.39394 -0.635138 0.899356 0.29402 0.0782311 -0.0434574 -0.622395 -0.856016 0.402182 0.296481 0.078884 -0.0438042 -3.20814 0.514427 1.52547 0.0414622 0.0103189 -0.00449672 -1.56545 -0.497974 0.68919 0.323945 0.0994065 -0.046367 -0.679943 -1.17582 0.444246 0.314068 0.096281 -0.0449347 -3.47877 0.200518 0.597719 0.0435904 0.0151684 -0.00793724 -1.28208 -0.53155 0.44672 0.317886 0.109903 -0.0584558 -0.710288 -0.970167 0.4032 0.318717 0.110123 -0.05837 -3.42483 -0.278904 -0.240415 0.0213872 0.00789837 -0.00353858 -1.05787 -0.635999 0.156459 0.326788 0.122211 -0.0554246 -0.42815 -0.754232 0.287187 0.346686 0.129836 -0.0588661 1.4963 7.5744 -1.52136 -1.27261 -0.180924 -1.72145 5.47506 -0.905672 0.485692 -82.9246 3.1014 -3.95878 11.3069 -0.201091 0.618544 -6.25818 -18.5885 -18.2057 9.61414 -0.254739 3.48553 1.35821 7.57189 3.91494 -0.176263 -0.07068 1.26622 -0.0739674 -0.0217296 -0.131957 1.04683 -0.546484 1.82182 -0.0741563 -0.0219025 -0.131927 0.993472 -0.621916 0.655506 -0.0825204 -0.0243249 -0.146886 2.64253 0.566363 2.4162 0.211323 -0.0710334 -0.0843216 1.39394 -0.635138 0.899356 0.211462 -0.0708176 -0.0844253 0.622395 -0.856016 0.402182 0.211379 -0.0709874 -0.0844527 3.20814 0.514427 1.52547 0.208485 -0.0794289 -0.0837982 1.56545 -0.497974 0.68919 0.208599 -0.0795641 -0.0837633 0.679943 -1.17582 0.444246 0.208526 -0.07953 -0.0838489 3.47877 0.200518 0.597719 0.202514 -0.0851784 -0.0923312 1.28208 -0.53155 0.44672 0.202669 -0.0852754 -0.0922601 0.710288 -0.970167 0.4032 0.202571 -0.0852277 -0.0922377 3.42483 -0.278904 -0.240415 0.201083 -0.0914017 -0.0896649 1.05787 -0.635999 0.156459 0.201001 -0.0913359 -0.0898144 0.42815 -0.754232 0.287187 0.20121 -0.0913882 -0.0896172 -4.17848 -1.02486 0.046356 0.729797 -6.27809 14.8081 1.27155 -17.465 -0.237699 10.2717 46.677 -8.25594 0.529163 -17.3815 -1.19582 0.724255 -1.9619 -11.0042 -0.711591 -4.4863 4.0596 1.08667 7.79157 -0.283264 4.17848 -1.02486 0.046356 -4.9587 4.5413 4.16601 -1.27155 -17.465 -0.237699 -0.010179 5.53877 -0.482134 -0.529163 -17.3815 -1.19582 7.91576 -0.100775 -1.41212 0.711591 -4.4863 4.0596 -0.36837 -0.0552069 0.00565779 
0.0952978 44.1925 -0.102071 -0.342406 -9.93679 1.7901 -5.55112e-017 5.99393 0.287273 0.538899 5.3647 -0.827407 1.38778e-017 6.65865 -0.856112 1.16365 10.7208 -1.71707 2.22045e-016 8.65624 -1.42685 0.816534 -1.75034 1.34986 4.44089e-016 3.80999 -0.190247 0.708239 -1.91037 -0.197843 -1.4963 7.5744 -1.52136 -2.7367 -0.00540036 0.241595 -5.47506 -0.905672 0.485692 80.9174 -9.18468 -8.47655 -11.3069 -0.201091 0.618544 2.06715 -12.6066 16.3785 -9.61414 -0.254739 3.48553 -4.11333 31.615 2.21453 0.176263 -0.07068 1.26622 -0.0547448 0.058021 -0.164071 -1.04683 -0.546484 1.82182 -0.05483 0.0579314 -0.163964 -0.993472 -0.621916 0.655506 -0.0549366 0.0578783 -0.164016 -2.64253 0.566363 2.4162 0.2123 0.0482243 -0.0214284 -1.39394 -0.635138 0.899356 1.11682 0.295813 -0.167174 -0.622395 -0.856016 0.402182 1.12632 0.298268 -0.168527 -3.20814 0.514427 1.52547 0.1575 0.0391641 -0.0173646 -1.56545 -0.497974 0.68919 1.22983 0.375774 -0.178923 -0.679943 -1.17582 0.444246 1.19288 0.364322 -0.173324 -3.47877 0.200518 0.597719 0.16543 0.0576406 -0.0303272 -1.28208 -0.53155 0.44672 1.20769 0.415369 -0.22487 -0.710288 -0.970167 0.4032 1.21077 0.416359 -0.22522 -3.42483 -0.278904 -0.240415 0.0814029 0.0297355 -0.0134757 -1.05787 -0.635999 0.156459 1.24107 0.46262 -0.214257 -0.42815 -0.754232 0.287187 1.31728 0.49104 -0.227774 1.4963 7.5744 -1.52136 -1.2726 -0.180873 -1.72145 5.47506 -0.905672 0.485692 -81.9375 2.93004 -5.11139 11.3069 -0.201091 0.618544 -7.31923 -18.6638 -19.4889 9.61414 -0.254739 3.48553 1.18071 7.85289 3.34296 -0.176263 -0.07068 1.26622 -0.280376 -0.081904 -0.499264 1.04683 -0.546484 1.82182 -0.28051 -0.0819482 -0.499368 0.993472 -0.621916 0.655506 -0.312217 -0.0910007 -0.555775 2.64253 0.566363 2.4162 0.798957 -0.270103 -0.317797 1.39394 -0.635138 0.899356 0.799104 -0.269969 -0.317934 0.622395 -0.856016 0.402182 0.798963 -0.270052 -0.317932 3.20814 0.514427 1.52547 0.788133 -0.302226 -0.315486 1.56545 -0.497974 0.68919 0.788243 -0.302389 -0.315461 0.679943 -1.17582 0.444246 0.788254 -0.302362 -0.315588 3.47877 0.200518 0.597719 0.765432 -0.323976 -0.347727 1.28208 -0.53155 0.44672 0.765655 -0.324163 -0.347686 0.710288 -0.970167 0.4032 0.765564 -0.324098 -0.347754 3.42483 -0.278904 -0.240415 0.759749 -0.347272 -0.33747 1.05787 -0.635999 0.156459 0.75986 -0.347341 -0.337691 0.42815 -0.754232 0.287187 0.745232 -0.315217 -0.324 -4.17848 -1.02486 0.046356 2.72876 -10.4962 15.8367 1.27155 -17.465 -0.237699 9.4091 44.4441 -7.10419 0.529163 -17.3815 -1.19582 -1.89971 -2.25422 -10.707 -0.711591 -4.4863 4.0596 1.11011 7.95535 -0.290961 4.17848 -1.02486 0.046356 -3.43693 7.3544 3.90396 -1.27155 -17.465 -0.237699 -0.012563 2.79401 -0.290833 -0.529163 -17.3815 -1.19582 8.08619 -0.82175 -3.00668 0.711591 -4.4863 4.0596 -0.363143 0.106084 -0.00176227 
0.096328 44.3193 -0.16612 -0.928002 -9.75286 2.97056 -2.22045e-016 5.99393 0.287273 0.659957 5.47052 -1.41014 1.11022e-016 6.65865 -0.856112 1.46574 10.9226 -2.90375 0 8.65624 -1.42685 1.09491 -2.08684 1.31644 0 3.80999 -0.190247 1.36972 -2.0735 0.442161 -1.4963 7.5744 -1.52136 -2.12504 0.00745558 -0.366075 -5.47506 -0.905672 0.485692 79.3796 -10.2613 -10.3567 -11.3069 -0.201091 0.618544 1.03828 -11.9898 15.2886 -9.61414 -0.254739 3.48553 -2.51557 27.2184 1.46411 0.176263 -0.07068 1.26622 -0.116379 0.123442 -0.34884 -1.04683 -0.546484 1.82182 -0.116462 0.123336 -0.348717 -0.993472 -0.621916 0.655506 -0.116545 0.123291 -0.348761 -2.64253 0.566363 2.4162 0.451219 0.1024 -0.0459277 -1.39394 -0.635138 0.899356 2.37579 0.625014 -0.362386 -0.622395 -0.856016 0.402182 2.39614 0.630145 -0.365294 -3.20814 0.514427 1.52547 0.334943 0.0832422 -0.0371741 -1.56545 -0.497974 0.68919 2.6166 0.794281 -0.390047 -0.679943 -1.17582 0.444246 2.53786 0.770241 -0.377611 -3.47877 0.200518 0.597719 0.351839 0.122528 -0.0648458 -1.28208 -0.53155 0.44672 2.57005 0.877382 -0.488445 -0.710288 -0.970167 0.4032 2.57661 0.879481 -0.489481 -3.42483 -0.278904 -0.240415 0.173132 0.0631556 -0.028765 -1.05787 -0.635999 0.156459 2.64099 0.978039 -0.467544 -0.42815 -0.754232 0.287187 2.80356 1.03765 -0.497812 1.4963 7.5744 -1.52136 -1.27259 -0.180843 -1.72146 5.47506 -0.905672 0.485692 -81.4906 2.99613 -6.4492 11.3069 -0.201091 0.618544 -8.80169 -18.7194 -21.3166 9.61414 -0.254739 3.48553 0.930539 8.25402 2.53641 -0.176263 -0.07068 1.26622 -0.594276 -0.170463 -1.05723 1.04683 -0.546484 1.82182 -0.594411 -0.170539 -1.05728 0.993472 -0.621916 0.655506 -0.661691 -0.189045 -1.17688 2.64253 0.566363 2.4162 1.68918 -0.576789 -0.668231 1.39394 -0.635138 0.899356 1.68947 -0.576739 -0.668376 0.622395 -0.856016 0.402182 1.68915 -0.576783 -0.668332 3.20814 0.514427 1.52547 1.66603 -0.64481 -0.6628 1.56545 -0.497974 0.68919 1.66635 -0.64506 -0.662863 0.679943 -1.17582 0.444246 1.66634 -0.64502 -0.662972 3.47877 0.200518 0.597719 1.61767 -0.691179 -0.730863 1.28208 -0.53155 0.44672 1.61814 -0.69145 -0.730879 0.710288 -0.970167 0.4032 1.61806 -0.691398 -0.730945 3.42483 -0.278904 -0.240415 1.60549 -0.740249 -0.708797 1.05787 -0.635999 0.156459 1.6059 -0.740455 -0.709243 0.42815 -0.754232 0.287187 1.60607 -0.740502 -0.708962 -4.17848 -1.02486 0.046356 3.90009 -12.8804 17.0604 1.27155 -17.465 -0.237699 6.84185 38.4642 -4.85814 0.529163 -17.3815 -1.19582 -1.88778 -2.36279 -11.769 -0.711591 -4.4863 4.0596 1.08228 7.76089 -0.281822 4.17848 -1.02486 0.046356 -2.85158 11.0596 2.90794 -1.27155 -17.465 -0.237699 -0.0238341 -1.54897 -0.0704605 -0.529163 -17.3815 -1.19582 9.65938 -0.332299 -3.86032 0.711591 -4.4863 4.0596 -0.796599 0.227555 0.00159395 
